# xmcd CD database file
#
# Track frame offsets:
#	225
#	36148
#	57357
#	75396
#	86047
#	104843
#	127866
#	144973
#	160201
#	185972
#	198886
#	220947
#	236245
#	253426
#
# Disc length: 3921 seconds
#
# Revision: 2
# Processed by: cddbd v1.5.2PL0 Copyright (c) Steve Scherf et al.
# Submitted via: CDex 1.51
#
DISCID=ce0f4e0e
DTITLE=STEVIE RAY VAUGHAN - The Rocker
DYEAR=2002
DGENRE=Blues Rock
TTITLE0=Voodoo Child
TTITLE1=You Better Leave My Gal Alone
TTITLE2=Pride And Joy
TTITLE3=The House Is Rocking
TTITLE4=Crossfire
TTITLE5=Tightrope
TTITLE6=Stevie's Dirty Blues
TTITLE7=Tell Me Darling
TTITLE8=Mary Had A Little Lamb
TTITLE9=Lip Stopping Baby
TTITLE10=Superstition
TTITLE11=Dog Man Blues
TTITLE12=Look At Little Sister
TTITLE13=Texas Flood
EXTD=YEAR: 2002
EXTT0=
EXTT1=
EXTT2=
EXTT3=
EXTT4=
EXTT5=
EXTT6=
EXTT7=
EXTT8=
EXTT9=
EXTT10=
EXTT11=
EXTT12=
EXTT13=
PLAYORDER=
